<?xml version="1.0" encoding="UTF-8" standalone="no"?>
<!-- Created with Inkscape (http://www.inkscape.org/) -->

<svg
   version="1.1"
   id="svg1"
   width="1448"
   height="1086"
   viewBox="0 0 1448 1086"
   xmlns="http://www.w3.org/2000/svg"
   xmlns:svg="http://www.w3.org/2000/svg">
  <defs
     id="defs1" />
  <g
     id="g1">
    <path
       style="fill:#000000"
       d="m 729.57426,800.87956 c 28.27899,-6.2954 43.43526,-10.8571 94.21639,-28.3565 29.69485,-10.233 53.81205,-15.9575 80.99995,-19.2263 10.964,-1.3182 18.5542,-1.5535 35,-1.0849 34.5072,0.9831 42.1654,2.2842 124,21.0656 56.7422,13.0227 105.5613,17.8764 146.1955,14.5354 14.7392,-1.2119 42.7806,-5.1278 55.5617,-7.7589 4.8165,-0.9915 8.402,-1.4475 7.9678,-1.0133 -1.4709,1.4709 -23.5276,8.9073 -36.6616,12.3604 -34.8679,9.1673 -79.124,11.6805 -122.5634,6.9601 -24.0245,-2.6106 -41.1162,-5.869 -91.3579,-17.4168 -31.9803,-7.3505 -48.1438,-10.4045 -63.7553,-12.0461 -44.0459,-4.6316 -74.4782,-0.8944 -137.43089,16.8772 -39.63042,11.1876 -64.05151,15.8062 -87.85069,16.6144 l -13.10517,0.445 z m -146.93121,-12.0304 c -6.68118,-1.0116 -25.13118,-5.0105 -41,-8.8865 -50.75125,-12.3962 -68.11438,-14.6685 -105.65108,-13.8267 -23.60203,0.5293 -38.6954,2.0703 -71.20132,7.2694 -27.82912,4.4511 -63.82575,9.5443 -65.35191,9.2468 -1.29799,-0.253 25.06962,-7.7276 55.99985,-15.8746 44.73662,-11.7837 87.40143,-17.138 118.43165,-14.863 24.61098,1.8044 38.04376,4.3773 82.42041,15.7862 45.0731,11.588 64.14175,14.2363 103.29063,14.3452 14.18484,0.04 25.65984,0.1879 25.5,0.3299 -0.96237,0.8549 -26.51971,5.6781 -36.88992,6.962 -17.36502,2.1498 -49.71396,1.9086 -65.54831,-0.4887 z m -430.3524,-26.9092 c -4.64665,-0.4424 -6.00197,-0.7825 -3.56244,-0.8941 7.80397,-0.3571 39.40151,-5.3831 55.42401,-8.8159 22.14122,-4.7437 38.6696,-9.5066 77.63843,-22.3725 75.12436,-24.8031 96.81147,-29.6224 138.10248,-30.6891 39.87214,-1.03 64.40366,2.6203 125.92874,18.7386 75.11986,19.6798 96.21993,23.3798 132.96878,23.3167 29.54667,-0.051 36.13363,-0.9425 99,-13.4026 59.77545,-11.8476 78.98065,-14.2308 115.49995,-14.3327 31.8643,-0.089 55.5707,2.7482 91.3166,10.9285 23.0949,5.2852 76.597,21.2284 71.8128,21.3997 -0.7539,0.027 -17.4039,-2.86 -37,-6.4156 -19.5961,-3.5556 -40.1294,-7.1474 -45.6294,-7.9817 -63.1968,-9.5864 -111.1126,-7.8668 -181.44067,6.5118 -58.75274,12.012 -74.11174,14.5208 -97.54939,15.934 -39.01011,2.3522 -77.46652,-2.5224 -146.9883,-18.632 -63.74682,-14.7713 -80.37254,-17.4021 -114.34735,-18.094 -42.68035,-0.8692 -64.01906,2.6351 -129.17424,21.2136 -54.12477,15.4333 -69.80334,19.0137 -96.5,22.0366 -15.33637,1.7366 -44.8763,2.562 -55.5,1.5507 z m 1021.99995,-2.6454 c 1.375,-0.2549 7,-1.1687 12.5,-2.0305 13.0385,-2.043 39.7415,-8.875 66,-16.8863 46.8075,-14.2805 50.5764,-15.0148 77,-15.0017 16.6834,0.01 22.7472,0.391 29.5,1.8621 12.1985,2.6575 28.1784,8.509 38.0066,13.917 8.8682,4.8798 9.3761,5.7305 1.9215,3.2181 -7.6205,-2.5683 -28.7846,-6.4796 -41.364,-7.6443 -22.314,-2.0661 -44.4885,-0.064 -79.5641,7.1832 -49.4555,10.2185 -58.2659,11.9091 -69.5283,13.3419 -10.9446,1.3924 -40.3696,3.1342 -34.4717,2.0405 z m -97.9179,-12.2457 c -2.0036,-0.6087 -0.376,-1.4788 9.5,-5.0783 6.5548,-2.3891 14.3929,-5.6016 17.4179,-7.139 26.7363,-13.5881 49.598,-37.8373 64.6694,-68.5945 6.9814,-14.2472 7.9301,-19.9846 3.9191,-23.7018 -1.4594,-1.3526 -4.1014,-2.7223 -5.871,-3.0438 -1.7696,-0.3215 -19.6425,0.1238 -39.7175,0.9896 -49.1764,2.121 -213.2373,2.9924 -278,1.4766 -75.741,-1.7727 -191.42155,-5.7363 -236.49995,-8.1032 -10.45,-0.5487 -53.2,-2.341 -95,-3.983 -73.58558,-2.8906 -122.82081,-4.9489 -167.5,-7.0026 -11.825,-0.5435 -32.525,-1.4462 -46,-2.006 -13.475,-0.5597 -34.85,-1.4634 -47.5,-2.0081 -12.65,-0.5446 -39.2,-1.6547 -59,-2.4668 -19.8,-0.8122 -47.11599,-1.9842 -60.70221,-2.6046 -23.33133,-1.0655 -24.91297,-1.0251 -28.5,0.7271 -2.09854,1.0251 -4.41606,3.1577 -5.17961,4.7664 -1.88733,3.9762 0.13156,10.1793 8.88036,27.2851 8.22859,16.0887 13.91586,24.2725 24.35553,35.0467 17.30594,17.8606 38.29497,28.0189 69.64593,33.7077 10.64563,1.9316 40.83263,5.5101 47.5,5.6307 4.40667,0.08 4.66014,0.1923 2.13597,0.9486 -1.57522,0.4719 -11.47522,1.1466 -22,1.4993 -28.24005,0.9464 -52.91407,-2.0493 -71.11082,-8.6337 -9.39808,-3.4006 -21.30378,-9.9386 -29.2208,-16.0465 -7.83384,-6.0438 -21.66592,-21.0623 -27.4688,-29.825 -5.770614,-8.7139 -15.897274,-28.8526 -18.821814,-37.4307 -5.56961,-16.3363 0.53866,-28.3413 16.413674,-32.2588 7.47189,-1.8439 6.81725,-1.8605 84.07259,2.1289 34.53514,1.7833 110.79783,5.3583 134.85401,6.3216 l 17.85402,0.7149 1.52069,-2.9415 c 3.53163,-6.8313 6.4048,-17.4317 6.92746,-25.5585 0.81496,-12.6718 -1.97455,-24.1586 -16.1492,-66.5 -6.81258,-20.35 -12.90524,-39.925 -13.53927,-43.5 -1.79164,-10.1024 -0.0321,-18.8357 5.11259,-25.3753 5.09004,-6.4702 18.98639,-9.8205 23.97567,-5.7805 3.20264,2.5934 1.99733,4.7112 -4.274,7.5099 -2.90508,1.2964 -6.01258,3.2096 -6.90554,4.2515 -2.70993,3.162 -4.13969,9.1418 -3.39977,14.2194 0.37469,2.5712 6.02505,20.9278 12.55634,40.7924 13.85904,42.1514 16.30098,52.5027 15.77809,66.8826 -0.31522,8.6689 -0.77465,10.8652 -3.45161,16.5 -1.80506,3.7995 -5.62171,9.1813 -9.18664,12.9538 -3.35426,3.5495 -6.00285,6.5212 -5.88575,6.6037 0.3762,0.265 204.52895,9.3083 280.71291,12.4347 14.025,0.5756 35.85,1.4779 48.5,2.0053 178.93095,7.4589 333.96655,8.504 438.49995,2.9559 38.7304,-2.0557 97.2549,-6.6215 173,-13.4968 54.3121,-4.9298 67.0222,-6.5735 68.9688,-8.919 1.743,-2.1001 -0.8623,-3.3364 -11.0326,-5.2354 -8.3488,-1.5588 -16.2354,-1.7579 -68.4362,-1.7273 -32.45,0.019 -72.95,0.5632 -90,1.2092 -81.5488,3.0899 -100.805,3.4758 -114.8681,2.3018 -16.4389,-1.3723 -24.6946,-2.9117 -22.4254,-4.1816 3.3788,-1.8909 38.8953,-5.9043 52.2496,-5.9043 2.3388,0 1.9452,-0.6012 -4.1874,-6.397 -4.561,-4.3105 -8.8888,-9.8785 -13.2687,-17.0711 -25.0313,-41.1055 -37.1702,-56.129 -56.2153,-69.5736 -20.6092,-14.5488 -47.8734,-22.9654 -79.7847,-24.6297 l -11.5,-0.5998 9,4.6484 c 34.9419,18.047 58.3911,51.9467 72.0241,104.1228 5.3366,20.4238 6.9868,30.8523 5.464,34.5286 -1.5801,3.8147 -4.1114,5.2568 -7.1726,4.0863 -4.263,-1.63 -5.5799,-4.5212 -9.8242,-21.5684 -8.2499,-33.1354 -19.0116,-59.9297 -30.6293,-76.2605 -23.8242,-33.4892 -59.4881,-49.7703 -96.6364,-44.1159 -4.2759,0.6509 -7.6279,1.4414 -7.4489,1.7567 8.766,15.44 6.2899,22.4232 -20.2146,57.0099 -3.6125,4.7141 -4.7028,6.8661 -4.074,8.041 0.4722,0.8823 4.0431,4.8141 7.9353,8.7373 3.8921,3.9232 7.0766,7.4728 7.0766,7.888 0,0.4153 -0.487,2.1369 -1.0822,3.826 -0.9551,2.7102 -0.4702,4.6571 4.127,16.571 2.8651,7.425 6.6545,17.325 8.4209,22 l 3.2117,8.5 4.6605,0.9174 c 2.5633,0.5046 4.8635,0.7146 5.1115,0.4666 0.5546,-0.5546 -8.37,-30.0583 -9.4427,-31.2161 -0.424,-0.4577 -1.7114,-0.2447 -2.8609,0.4731 -1.8692,1.1674 -2.4599,0.9469 -5.5897,-2.0866 l -3.4996,-3.392 3.9096,-4.2414 c 4.53,-4.9145 5.8362,-9.8 4.1367,-15.4724 -2.4258,-8.0966 -8.5173,-12.4352 -16.561,-11.7954 -2.8017,0.2228 -4.5418,-0.052 -4.5418,-0.716 0,-0.5925 1.6556,-3.0113 3.679,-5.3753 3.5817,-4.1843 3.8053,-4.2831 8.4463,-3.7335 12.8012,1.5161 21.1838,11.9717 21.3836,26.6716 0.083,6.0945 1.0614,10.4984 5.2221,23.5 2.8161,8.8 5.8606,18.5875 6.7656,21.75 0.9049,3.1625 1.7259,5.7835 1.8244,5.8245 0.5704,0.2372 52.221,4.956 66.1211,6.0408 9.1069,0.7107 16.5579,1.6505 16.5579,2.0884 0,1.0893 -90.0607,0.9427 -102.4892,-0.1668 -8.6411,-0.7715 -10.2606,-1.2093 -12,-3.2438 -1.1059,-1.2936 -4.2608,-8.499 -7.0108,-16.0121 l -5,-13.6601 -4,-0.6671 c -8.2365,-1.3736 -13.9539,-6.4572 -17.0628,-15.1714 -1.6041,-4.4963 -1.766,-8.2205 -0.4469,-10.2824 0.8529,-1.3333 1.259,-1.3333 3.6545,0 1.4822,0.825 3.123,2.85 3.6462,4.5 0.9677,3.0515 7.3686,10.5 9.0233,10.5 1.478,0 -0.2826,-7.1376 -2.9601,-12 -1.3628,-2.475 -3.9875,-6.2191 -5.8326,-8.3202 l -3.3548,-3.8201 -4.2833,5.8201 c -6.43992,8.7508 -13.89186,16.2838 -18.36679,18.5668 -11.38545,5.8084 -24.33961,-0.3897 -28.53902,-13.655 -3.14541,-9.9358 4.15206,-33.8803 15.85114,-52.0108 8.08623,-12.5315 23.22492,-25.9812 36.91667,-32.7981 6.9865,-3.4783 9.3078,-4.1382 15.2026,-4.3211 5.4815,-0.1702 7.9243,-0.7828 11.5172,-2.8884 6.2348,-3.6538 16.365,-7.3694 26.5347,-9.7326 11.0554,-2.5689 44.6819,-3.6304 61.1425,-1.93 41.7943,4.3173 71.6425,16.9577 97.2342,41.1776 12.6786,11.999 19.8998,21.09 36.4538,45.8925 21.4842,32.1895 22.7822,33.0919 49.1695,34.1873 9.625,0.3995 53.725,1.2016 98,1.7823 44.275,0.5808 87.8002,1.5198 96.7227,2.0867 46.2344,2.9378 53.0382,14.1038 33.1405,54.3882 -16.1539,32.7048 -36.6769,54.8342 -65.1459,70.2453 -32.3048,17.4874 -81.9156,28.6622 -132.7173,29.8945 -12.9916,0.3151 -18.8325,0.1489 -17.5,-0.4979 1.1,-0.534 11.45,-2.3735 23,-4.0878 47.9911,-7.123 78.3826,-15.4379 105,-28.7272 17.031,-8.5032 26.7258,-15.4562 40.0705,-28.7383 13.5107,-13.4472 21.904,-25.1751 30.7987,-43.0347 5.5875,-11.219 6.9296,-15.1166 5.0966,-14.801 -5.3434,0.92 -128.4361,11.7073 -146.4658,12.8356 -14.5667,0.9116 -14.2073,0.7584 -12.3024,5.2419 3.8785,9.1287 0.8679,20.795 -10.7724,41.7444 -8.6175,15.5093 -15.9585,25.4575 -26.9252,36.4883 -13.7603,13.8406 -27.5864,22.8078 -44.2226,28.6817 -5.818,2.0542 -9.5836,2.6375 -18.7774,2.9087 -6.325,0.1865 -12.5881,0.01 -13.9179,-0.3955 z M 807.79066,563.86566 c 1.77984,-1.1 8.10354,-8.4125 14.05266,-16.25 5.94908,-7.8375 15.58848,-20.55 21.42078,-28.25 10.6002,-13.9949 15.0265,-21.5535 15.0265,-25.6604 0,-6.3965 -7.959,-7.7012 -17.5902,-2.8835 -20.26006,10.1343 -38.90382,35.4623 -43.89682,59.635 -2.68999,13.0231 2.11766,18.8905 10.98708,13.4089 z M 57.290646,733.02726 c 9.88647,-5.1822 22.83091,-9.6817 34.96868,-12.1552 17.582644,-3.5831 30.077004,-2.4254 54.231424,5.0249 8.67623,2.6761 19.49307,5.6378 24.03743,6.5815 4.54436,0.9436 8.71247,2.1473 9.26247,2.6747 1.52184,1.4595 -21.81228,0 -46.5,-2.9122 -28.2522,-3.3305 -51.681574,-2.9912 -68.000004,0.9847 -5.775,1.407 -11.625,2.8225 -13,3.1455 -1.375,0.323 0.875,-1.1817 5,-3.3439 z M 707.79065,613.47336 c -5.99599,-1.8865 -7.76206,-3.031 -17.2343,-11.1681 -15.18379,-13.0437 -18.13771,-13.7301 -52.7657,-12.2599 -40.1261,1.7035 -48.86482,0.7717 -53.07881,-5.6596 -0.87871,-1.3411 -4.25088,-9.0065 -7.49372,-17.0342 -7.08049,-17.5278 -14.41704,-31.9601 -20.15468,-39.6477 l -4.22566,-5.6618 -3.90116,3.5245 c -10.78006,9.7391 -26.86387,10.8223 -39.81627,2.6815 -7.23243,-4.5457 -11.86863,-13.4183 -8.35427,-15.9881 1.64596,-1.2036 1.60363,-1.3312 -0.60254,-1.8161 -1.30509,-0.2869 -15.42289,-0.9896 -31.37289,-1.5616 -32.33964,-1.1597 -49.85595,-2.4399 -62.5,-4.5678 -26.1487,-4.4006 -41.18925,-12.6781 -47.15023,-25.9488 -7.92677,-17.6471 7.67326,-78.2893 26.54829,-103.2016 8.29159,-10.9437 23.00845,-20.2791 34.85194,-22.1078 5.94488,-0.9179 7.41986,-0.2773 3.5,1.5201 -4.24314,1.9456 -16.4167,14.1685 -21.64771,21.7354 -6.35601,9.1943 -13.01308,23.0827 -20.63694,43.0539 -11.77919,30.8565 -14.31302,48.7668 -8.05915,56.966 3.46202,4.5388 15.34442,10.4191 26.0938,12.913 14.9535,3.4693 38.07332,6.3295 73.97281,9.1515 13.32461,1.0474 21.98973,2.1744 23.76142,3.0906 1.53373,0.7931 6.08429,4.7916 10.11234,8.8856 7.71613,7.8423 13.8502,11.4346 19.58771,11.4713 5.07734,0.033 11.82669,-3.6688 15.24589,-8.3607 2.68062,-3.6784 2.95749,-4.7286 2.59744,-9.852 -0.31824,-4.5284 -1.04034,-6.5266 -3.43313,-9.5 -6.52882,-8.1129 -12.11404,-10.2488 -26.84448,-10.2655 -9.67486,-0.011 -10.60151,-0.2188 -28.5,-6.3904 -23.01074,-7.9344 -28.01927,-9.8443 -45.5,-17.3504 -7.7,-3.3064 -17.31874,-6.9485 -21.37498,-8.0936 -4.05624,-1.1451 -7.55289,-2.2599 -7.77033,-2.4774 -0.21744,-0.2174 1.43887,-1.6092 3.68069,-3.0927 2.54433,-1.6838 6.11544,-5.8261 9.5031,-11.0233 6.47601,-9.935 8.39192,-14.1314 13.95798,-30.572 l 4.23196,-12.5 1.20256,4 c 0.66141,2.2 1.44372,7.825 1.73847,12.5 0.65134,10.3307 -1.21298,19.2605 -5.89788,28.25 -1.79146,3.4375 -3.39254,6.5338 -3.55794,6.8807 -0.16541,0.3468 0.95636,0.9418 2.49282,1.3221 4.47445,1.1075 21.18818,8.6017 43.71454,19.6009 l 20.92099,10.2154 8.25717,-1.2845 c 16.08037,-2.5015 28.27783,0.7324 37.48335,9.9379 7.26043,7.2604 9.39835,13.174 8.67072,23.9835 l -0.51118,7.594 4.25059,3.1849 c 8.94624,6.7033 20.40726,25.8455 29.52652,49.3151 1.81649,4.675 3.76164,9.0941 4.32255,9.8203 0.8212,1.0631 8.72653,1.2636 40.58906,1.0293 50.03292,-0.3678 46.96822,-1.2349 71.06924,20.1078 6.325,5.6011 13.18403,11.1646 15.2423,12.3632 2.05826,1.1987 3.74576,2.5169 3.75,2.9294 0.0125,1.2173 -14.14473,0.7256 -18.4923,-0.6423 z m 37.50117,-2.3552 c -4.12436,-0.1926 -7.90182,-0.7532 -8.39437,-1.2457 -0.52737,-0.5274 -0.36704,-2.1714 0.39001,-3.9991 1.18116,-2.8516 1.07942,-3.323 -1.25299,-5.8056 -7.94983,-8.462 -23.21137,-38.7051 -34.84271,-69.046 -4.44396,-11.5924 -10.20188,-32.4428 -9.66282,-34.9908 0.25813,-1.2202 2.56839,0.473 8.64333,6.3347 9.8012,9.4572 11.11631,11.9488 25.59841,48.5 5.33899,13.475 12.30487,29.9511 15.47972,36.6136 6.68101,14.0202 5.2415,13.1951 23.25131,13.3275 5.89108,0.043 11.88288,0.5243 13.3151,1.0688 3.85211,1.4646 4.10844,1.3002 3.68096,-2.3614 -0.40469,-3.4665 2.6795,-10.817 6.53809,-15.5822 l 1.95522,-2.4146 3.89978,2.3478 c 2.14489,1.2913 4.06696,2.4743 4.27128,2.629 0.20433,0.1546 -0.86,2.3826 -2.36518,4.9509 -7.10843,12.1297 -15.98788,17.6806 -31.00631,19.3836 -4.95,0.5613 -9.675,0.9349 -10.5,0.8301 -0.825,-0.1048 -4.87447,-0.3481 -8.99883,-0.5406 z m -185.41934,-4.5025 c -1.88081,-1.6729 -3.97817,-6.7389 -8.17664,-19.75 -3.10582,-9.625 -8.29103,-23.575 -11.5227,-31 -3.23166,-7.425 -5.87727,-13.7952 -5.87912,-14.156 -0.003,-0.4858 8.32581,-3.844 9.53319,-3.844 0.0992,0 1.81329,2.4595 3.80919,5.4655 5.07081,7.6372 12.13666,23.7002 17.17061,39.0345 5.7429,17.4938 6.16144,20.3686 3.46466,23.797 -2.5902,3.2929 -5.0567,3.4259 -8.39919,0.453 z m -406.03183,-21.643 c 5.72648,-5.3827 120.47648,-18.0303 164.15078,-18.0925 10.17958,-0.014 20.29922,1.4495 20.29922,2.9366 0,1.5944 -11.9367,4.0152 -27.25478,5.5274 -15.50854,1.5309 -33.45112,3.0296 -95.74522,7.9973 -31.43039,2.5064 -63.28054,3.3519 -61.45,1.6312 z m 454.03164,-14.0287 -2.91837,-0.5783 5.68543,-4.3848 c 15.00281,-11.5706 23.39135,-23.5293 46.37703,-66.1152 14.67916,-27.1963 28.19478,-48.984 30.77427,-49.6092 0.55,-0.1334 3.42742,4.7867 6.39426,10.9334 4.624,9.58 6.48028,12.2507 13,18.7039 7.81862,7.7389 9.8698,9.119 40.69377,27.38 18.01945,10.6752 26.3531,16.8917 30.55473,22.7924 l 2.21105,3.1051 -2.73877,-0.6874 c -3.82751,-0.9606 -41.63823,-17.608 -53.41118,-23.5159 -17.86152,-8.9633 -30.93058,-20.6199 -36.27273,-32.3523 -0.68869,-1.5125 -1.57538,-2.75 -1.97043,-2.75 -0.39505,0 -3.74841,6.6375 -7.4519,14.75 -9.66039,21.1611 -20.7251,42.3454 -27.27127,52.2131 -13.55361,20.4308 -31.17713,32.588 -43.65589,30.1152 z m 180.86567,-70.8817 c -4.66969,-3.3974 -22.19848,-22.0412 -42.96377,-45.6966 -23.96198,-27.297 -34.24329,-38.091 -40.17082,-42.1737 -5.1834,-3.5702 -6.03937,-3.8263 -12.78648,-3.8263 -6.71558,0 -7.98545,0.3747 -17.80926,5.255 -25.09235,12.4654 -59.47698,38.3859 -97.6211,73.5906 -5.17227,4.7737 -9.57883,8.5048 -9.79236,8.2912 -1.62675,-1.6267 11.72142,-23.1925 21.18763,-34.2314 l 3.51125,-4.0947 -8.7512,-5.3292 c -23.88489,-14.5453 -35.32919,-26.9391 -41.983,-45.4662 -7.6868,-21.4034 -20.04845,-36.7007 -38.76564,-47.9716 -6.33304,-3.8136 -18.37692,-8.0719 -25.75256,-9.1053 -2.6125,-0.366 -4.75,-1.0155 -4.75,-1.4434 0,-1.6679 8.86542,-4.2963 16.01848,-4.7492 6.25402,-0.3959 8.73044,-0.054 14.72481,2.0301 15.08175,5.245 33.45221,20.771 44.37749,37.5062 2.77117,4.2448 8.5776,14.9676 12.90319,23.8283 7.23147,14.8132 8.39932,16.6003 14.50424,22.1943 3.65174,3.3462 10.53929,8.8979 15.30566,12.3372 4.76637,3.4393 8.95791,6.6794 9.31453,7.2003 0.35662,0.5209 4.18162,-2.1642 8.5,-5.9667 17.10603,-15.0629 42.0802,-32.2174 58.8516,-40.4248 36.69078,-17.9551 49.10134,-9.6985 118.76987,79.0171 9.62521,12.2567 10.39322,13.906 8.58564,18.4379 l -1.46089,3.6628 z M 404.79065,340.97566 c -8.56905,-2.4957 -14.09735,-5.6121 -19.44909,-10.9639 -22.56426,-22.5642 -9.31119,-62.2742 30.64593,-91.8239 14.67957,-10.856 36.6065,-20.7492 51.88492,-23.4098 10.01749,-1.7445 28.6003,-0.7129 35.56306,1.9741 11.00224,4.246 19.31943,12.4577 23.06032,22.7678 6.83771,18.8451 -2.42081,41.9296 -26.22637,65.3909 -24.56502,24.2098 -53.58822,38.0649 -79.35699,37.8836 -6.48189,-0.046 -12.27944,-0.6997 -16.12178,-1.8188 z m 36.77235,-12.5303 c 30.6207,-9.0194 63.62257,-36.3584 72.76134,-60.276 1.21964,-3.1921 2.44296,-9.0315 2.71848,-12.9766 0.61639,-8.8258 -1.64995,-14.3067 -8.35706,-20.2105 -20.61617,-18.1471 -75.63181,-0.082 -105.66989,34.6971 -6.70013,7.7577 -14.04887,21.6114 -15.71104,29.618 -3.02582,14.5753 5.15161,26.7655 20.98582,31.2838 6.95022,1.9833 22.72631,0.9706 33.27235,-2.1358 z"
       id="path1" />
  </g>
</svg>
